<svg width="50" height="44" viewBox="0 0 50 44" fill="none" xmlns="http://www.w3.org/2000/svg">
<path d="M48.0706 39.5369H43.849L27.259 9.12404L30.3103 3.5303C30.7753 2.67931 30.4612 1.61426 29.6102 1.14928C28.7592 0.684309 27.6942 1.00014 27.2292 1.84938L25.2605 5.45863L23.2918 1.84938C22.8286 1.00014 21.7653 0.684309 20.9108 1.14928C20.0598 1.61426 19.7457 2.67931 20.2107 3.5303L23.262 9.12404L6.67204 39.5369H2.45042C1.48187 39.5369 0.695801 40.323 0.695801 41.2915C0.695801 42.2601 1.48187 43.0461 2.45042 43.0461H48.0706C49.0391 43.0461 49.8252 42.2601 49.8252 41.2915C49.8252 40.323 49.0391 39.5369 48.0706 39.5369V39.5369ZM30.5244 39.5369H19.9966V32.5184C19.9966 29.611 22.3531 27.2545 25.2605 27.2545C28.1679 27.2545 30.5244 29.611 30.5244 32.5184V39.5369Z" fill="#FFAB04"/>
</svg>
