<svg width="49" height="42" viewBox="0 0 49 42" fill="none" xmlns="http://www.w3.org/2000/svg">
<path d="M14.0791 37.3669C12.9391 38.2436 11.5301 38.7861 9.98399 38.7861C6.25806 38.7861 3.22617 35.7543 3.22617 32.0283C3.22617 28.3016 6.25806 25.2696 9.98399 25.2696C12.7961 25.2696 15.2078 26.9987 16.2247 29.4472L18.3409 27.2524C16.6744 24.3438 13.5763 22.3609 9.98399 22.3609C4.64443 22.3609 0.317383 26.689 0.317383 32.0283C0.317383 37.3669 4.64443 41.6949 9.98399 41.6949C12.4961 41.6949 14.7628 40.7131 16.4822 39.1413C15.8223 38.9198 15.1964 38.5685 14.6615 38.0534C14.4408 37.8402 14.2504 37.6073 14.0791 37.3669Z" fill="#FFAB04"/>
<path d="M28.7574 22.4348L23.6387 19.4617C25.9214 18.0329 25.075 18.5621 27.3578 17.1332L27.286 17.8605C27.1628 19.0981 28.0749 20.2307 29.2232 20.4634C29.2506 20.469 38.2089 21.9917 38.5356 21.9917C39.6994 21.9917 40.7268 21.1508 40.9235 19.9644C41.1432 18.6435 40.2504 17.3954 38.9296 17.1769L32.3345 16.0812L32.6481 12.934C32.9643 10.9229 33.1015 10.2923 32.3506 9.09247L31.4066 7.58322C30.187 5.63543 27.6154 5.03984 25.6629 6.26225L15.3308 12.7312C12.7931 14.3201 11.5556 17.6702 13.6274 20.1347C14.4367 21.0977 22.3061 25.9335 22.3061 25.9335L15.9328 32.5445C14.8174 33.7005 14.8505 35.5423 16.0076 36.6568C16.5719 37.201 17.2992 37.4719 18.0263 37.4719C18.7886 37.4719 19.5499 37.1747 20.1199 36.5818L29.3897 26.9684C30.6975 25.6152 30.3908 23.3834 28.7574 22.4348Z" fill="#FFAB04"/>
<path d="M39.6163 9.22972C41.8823 7.81039 42.5687 4.8239 41.1502 2.55901C39.7319 0.292177 36.7453 -0.394304 34.4797 1.02415C32.2147 2.44261 31.5282 5.42803 32.9458 7.69292C34.364 9.95985 37.3505 10.6473 39.6163 9.22972Z" fill="#FFAB04"/>
<path d="M38.8238 22.3609C33.4287 22.3609 29.1572 26.8122 29.1572 32.0283C29.1572 37.3669 33.4845 41.6949 38.8238 41.6949C44.1622 41.6949 48.4905 37.3669 48.4905 32.0283C48.4905 26.689 44.1622 22.3609 38.8238 22.3609ZM38.8238 38.7861C35.0979 38.7861 32.066 35.7543 32.066 32.0283C32.066 28.3016 35.098 25.2696 38.8238 25.2696C42.5499 25.2696 45.5817 28.3016 45.5817 32.0283C45.5818 35.7543 42.5499 38.7861 38.8238 38.7861Z" fill="#FFAB04"/>
</svg>
