<svg width="40" height="50" viewBox="0 0 40 50" fill="none" xmlns="http://www.w3.org/2000/svg">
<path d="M39.0172 40.622H37.0497V23.5853C36.5808 23.7863 36.0759 23.8902 35.5657 23.8905H35.3537V40.622H29.5278L27.6028 37.9847C27.5226 37.8749 27.47 37.7476 27.4493 37.6133C27.4287 37.479 27.4406 37.3417 27.4841 37.213L29.4176 31.5143C29.4614 31.4008 29.4803 31.2792 29.473 31.1577C29.4657 31.0363 29.4323 30.9178 29.3752 30.8104C29.3233 30.7013 29.2501 30.6038 29.1597 30.5237C29.0694 30.4435 28.9639 30.3824 28.8494 30.344L22.7945 28.2579H18.5544C18.0574 29.0415 17.3694 29.6861 16.5551 30.1311C15.7408 30.5761 14.8267 30.8069 13.8988 30.8019H10.4473L5.21504 47.4655H1.1615C0.936588 47.4655 0.72089 47.5549 0.561856 47.7139C0.402821 47.8729 0.313477 48.0886 0.313477 48.3136C0.313477 48.5385 0.402821 48.7542 0.561856 48.9132C0.72089 49.0722 0.936588 49.1616 1.1615 49.1616H16.0358C16.1947 49.1619 16.3505 49.1175 16.4855 49.0336C16.6204 48.9496 16.7291 48.8294 16.799 48.6867L19.9112 42.318H39.0172C39.2421 42.318 39.4578 42.2287 39.6168 42.0697C39.7758 41.9106 39.8652 41.6949 39.8652 41.47C39.8652 41.2451 39.7758 41.0294 39.6168 40.8704C39.4578 40.7113 39.2421 40.622 39.0172 40.622V40.622ZM22.9726 40.622H19.3855C19.2265 40.6217 19.0707 40.666 18.9358 40.75C18.8008 40.834 18.6922 40.9542 18.6223 41.0969L15.51 47.4655H12.4995L10.8968 45.1928C10.8118 45.07 10.7607 44.9269 10.7488 44.7779C10.7369 44.629 10.7645 44.4796 10.8289 44.3448L15.315 35.0929C15.5688 34.5835 15.9595 34.155 16.4434 33.8554C16.9272 33.5558 17.485 33.397 18.0541 33.3969L23.4305 33.4732C23.5586 33.4703 23.6856 33.4965 23.8021 33.5498C23.9186 33.6031 24.0216 33.682 24.1032 33.7808C24.1848 33.8795 24.2429 33.9955 24.2733 34.1199C24.3037 34.2443 24.3055 34.3741 24.2785 34.4993L22.9726 40.622ZM5.95282 27.8423C5.64909 27.4476 5.43867 26.9893 5.33733 26.5017C5.23599 26.0141 5.24637 25.5099 5.36768 25.0269L6.99588 18.4378C7.24674 17.4067 7.83923 16.491 8.6769 15.8397C9.51457 15.1883 10.5481 14.8397 11.6091 14.8506H15.8492C16.3677 14.837 16.8825 14.9424 17.3538 15.1589C17.8252 15.3753 18.2407 15.697 18.5683 16.0991C18.8959 16.5012 19.1269 16.9732 19.2436 17.4785C19.3603 17.9839 19.3595 18.5094 19.2413 19.0144L17.6301 26.1548C17.4473 27.0006 16.9793 27.7579 16.3047 28.2998C15.63 28.8417 14.7896 29.1353 13.9242 29.1313H8.58168C8.07504 29.1264 7.57593 29.0081 7.12102 28.7851C6.6661 28.562 6.26692 28.2399 5.95282 27.8423V27.8423ZM6.68211 11.891C6.68436 11.1661 6.97393 10.4715 7.48737 9.95968C8.00081 9.44783 8.69623 9.16042 9.42122 9.16042H20.03C20.7542 9.16042 21.4487 9.44811 21.9608 9.9602C22.4729 10.4723 22.7606 11.1668 22.7606 11.891C22.7606 12.6153 22.4729 13.3098 21.9608 13.8219C21.4487 14.334 20.7542 14.6217 20.03 14.6217H19.4788C19.0006 14.1496 18.4337 13.7769 17.8107 13.5251C17.1878 13.2733 16.5211 13.1474 15.8492 13.1546H11.6091C10.3533 13.1618 9.12703 13.5361 8.08135 14.2316C7.66117 14.001 7.31003 13.6626 7.06409 13.2512C6.81816 12.8398 6.68631 12.3703 6.68211 11.891V11.891ZM35.5657 16.4534H35.3537V13.2479C35.3537 13.023 35.443 12.8073 35.6021 12.6482C35.7611 12.4892 35.9768 12.3999 36.2017 12.3999C36.4266 12.3999 36.6423 12.4892 36.8014 12.6482C36.9604 12.8073 37.0497 13.023 37.0497 13.2479V16.7672C36.5826 16.5595 36.0769 16.4526 35.5657 16.4534V16.4534ZM23.5408 14.5538L27.5858 17.6491C28.0163 17.9727 28.5399 18.1482 29.0783 18.1494H35.5657C35.8423 18.1315 36.1197 18.1705 36.3806 18.2641C36.6416 18.3576 36.8805 18.5037 37.0828 18.6932C37.285 18.8828 37.4462 19.1118 37.5564 19.3662C37.6667 19.6205 37.7235 19.8948 37.7235 20.172C37.7235 20.4492 37.6667 20.7234 37.5564 20.9778C37.4462 21.2321 37.285 21.4612 37.0828 21.6507C36.8805 21.8403 36.6416 21.9863 36.3806 22.0799C36.1197 22.1734 35.8423 22.2124 35.5657 22.1945H28.7222C28.0357 22.1901 27.3637 21.9965 26.7802 21.6348L24.6856 20.3628C24.5682 20.2909 24.435 20.2487 24.2976 20.2398C24.1602 20.231 24.0227 20.2557 23.8969 20.3119C23.7719 20.3666 23.6618 20.4506 23.5762 20.5569C23.4906 20.6632 23.4319 20.7886 23.4051 20.9225L22.2603 26.5618H19.2413L20.8441 19.4215C21.0767 18.3802 20.9788 17.2923 20.5642 16.3092C21.1533 16.2331 21.7207 16.0382 22.2324 15.7365C22.744 15.4348 23.1891 15.0325 23.5408 14.5538V14.5538ZM29.2056 5.73441C29.2056 5.95932 29.1162 6.17502 28.9572 6.33405C28.7981 6.49309 28.5824 6.58243 28.3575 6.58243H24.5754V7.32021C24.5795 8.16086 24.3216 8.98191 23.8376 9.66923C23.4502 9.00167 22.895 8.447 22.2271 8.06023C21.5592 7.67347 20.8018 7.46806 20.03 7.46438H16.2563C16.2522 7.41641 16.2522 7.36818 16.2563 7.32021V5.06448C16.2327 3.96242 16.6478 2.89612 17.4104 2.10015C18.1729 1.30418 19.2205 0.843746 20.3225 0.820131C21.4246 0.796515 22.4909 1.21166 23.2869 1.97423C24.0828 2.7368 24.5433 3.78434 24.5669 4.88639H28.366C28.5894 4.88863 28.803 4.97896 28.9602 5.13775C29.1174 5.29654 29.2056 5.51097 29.2056 5.73441V5.73441Z" fill="#FFAB04"/>
</svg>
