<svg width="56" height="56" viewBox="0 0 56 56" fill="none" xmlns="http://www.w3.org/2000/svg">
<rect x="27.999" y="3.70698" width="35" height="35" rx="17.5" transform="rotate(45 27.999 3.70698)" stroke="white"/>
<rect x="0.5" y="0.5" width="55" height="55" rx="27.5" stroke="white"/>
<path d="M23.5814 22.1829C23.2535 21.8504 23.0698 21.4024 23.0698 20.9356C23.0698 20.4688 23.2535 20.0208 23.5814 19.6883L26.7517 16.5204C26.9151 16.3555 27.1095 16.2246 27.3237 16.1353C27.538 16.046 27.7678 16 28 16C28.2322 16 28.462 16.046 28.6763 16.1353C28.8905 16.2246 29.0849 16.3555 29.2483 16.5204L32.4186 19.6883C32.7465 20.0208 32.9302 20.4688 32.9302 20.9356C32.9302 21.4024 32.7465 21.8504 32.4186 22.1829L29.2483 25.3509C29.0849 25.5157 28.8905 25.6466 28.6763 25.7359C28.462 25.8252 28.2322 25.8712 28 25.8712C27.7678 25.8712 27.538 25.8252 27.3237 25.7359C27.1095 25.6466 26.9151 25.5157 26.7517 25.3509L23.5814 22.1829ZM25.3488 26.7527L22.1785 23.5848C22.0152 23.4199 21.8208 23.289 21.6065 23.1997C21.3923 23.1104 21.1624 23.0644 20.9302 23.0644C20.6981 23.0644 20.4682 23.1104 20.254 23.1997C20.0397 23.289 19.8453 23.4199 19.682 23.5848L16.5116 26.7527C16.1838 27.0852 16 27.5332 16 28C16 28.4668 16.1838 28.9148 16.5116 29.2473L19.682 32.4152C19.8453 32.5801 20.0397 32.711 20.254 32.8003C20.4682 32.8896 20.6981 32.9356 20.9302 32.9356C21.1624 32.9356 21.3923 32.8896 21.6065 32.8003C21.8208 32.711 22.0152 32.5801 22.1785 32.4152L25.3488 29.2473C25.6767 28.9148 25.8605 28.4668 25.8605 28C25.8605 27.5332 25.6767 27.0852 25.3488 26.7527ZM39.4883 26.7527L36.318 23.5848C36.1547 23.4199 35.9603 23.289 35.746 23.1997C35.5318 23.1104 35.3019 23.0644 35.0698 23.0644C34.8376 23.0644 34.6077 23.1104 34.3935 23.1997C34.1792 23.289 33.9848 23.4199 33.8215 23.5848L30.6512 26.7527C30.3233 27.0852 30.1395 27.5332 30.1395 28C30.1395 28.4668 30.3233 28.9148 30.6512 29.2473L33.8215 32.4152C33.9848 32.5801 34.1792 32.711 34.3935 32.8003C34.6077 32.8896 34.8376 32.9356 35.0698 32.9356C35.3019 32.9356 35.5318 32.8896 35.746 32.8003C35.9603 32.711 36.1547 32.5801 36.318 32.4152L39.4883 29.2473C39.8162 28.9148 40 28.4668 40 28C40 27.5332 39.8162 27.0852 39.4883 26.7527ZM29.2483 30.6491C29.0849 30.4843 28.8905 30.3534 28.6763 30.2641C28.462 30.1748 28.2322 30.1288 28 30.1288C27.7678 30.1288 27.538 30.1748 27.3237 30.2641C27.1095 30.3534 26.9151 30.4843 26.7517 30.6491L23.5814 33.8171C23.2535 34.1496 23.0698 34.5976 23.0698 35.0644C23.0698 35.5312 23.2535 35.9792 23.5814 36.3117L26.7517 39.4796C26.9151 39.6445 27.1095 39.7754 27.3237 39.8647C27.538 39.954 27.7678 40 28 40C28.2322 40 28.462 39.954 28.6763 39.8647C28.8905 39.7754 29.0849 39.6445 29.2483 39.4796L32.4186 36.3117C32.7465 35.9792 32.9302 35.5312 32.9302 35.0644C32.9302 34.5976 32.7465 34.1496 32.4186 33.8171L29.2483 30.6491Z" fill="#FFBF00"/>
</svg>
