<svg width="56" height="56" viewBox="0 0 56 56" fill="none" xmlns="http://www.w3.org/2000/svg">
<rect x="27.999" y="3.70698" width="35" height="35" rx="17.5" transform="rotate(45 27.999 3.70698)" stroke="white"/>
<rect x="0.5" y="0.5" width="55" height="55" rx="27.5" stroke="white"/>
<path d="M34 34.6667V28C34 27.0833 33.2286 26.3333 32.2857 26.3333H25.4286V23H34V19.6667H29.7143V18H26.2857V19.6667H23.7143C22.7714 19.6667 22 20.4167 22 21.3333V28C22 28.9167 22.7714 29.6667 23.7143 29.6667H30.5714V33H22V36.3333H26.2857V38H29.7143V36.3333H32.2857C33.2286 36.3333 34 35.5833 34 34.6667Z" fill="white"/>
</svg>
