<svg width="51" height="32" viewBox="0 0 51 32" fill="none" xmlns="http://www.w3.org/2000/svg">
<path d="M3.86621 24.4315V27.8038H6.39811C6.25966 27.2686 6.18966 26.7181 6.18976 26.1653C6.1952 25.5797 6.27434 24.9972 6.4253 24.4315H3.86621Z" fill="#FFAB04"/>
<path d="M12.7183 24.277C12.3364 24.2769 11.963 24.3902 11.6454 24.6024C11.3278 24.8145 11.0803 25.1161 10.9341 25.469C10.788 25.8219 10.7497 26.2102 10.8242 26.5848C10.8987 26.9594 11.0826 27.3035 11.3527 27.5735C11.6228 27.8436 11.9669 28.0275 12.3415 28.102C12.7161 28.1766 13.1044 28.1383 13.4572 27.9921C13.8101 27.846 14.1117 27.5984 14.3239 27.2808C14.5361 26.9633 14.6493 26.5899 14.6493 26.2079C14.6487 25.696 14.4451 25.2052 14.0831 24.8432C13.7211 24.4811 13.2303 24.2775 12.7183 24.277V24.277Z" fill="#FFAB04"/>
<path d="M3.86593 9.99358H2.47125C1.60013 9.99358 0.915126 10.7439 0.915126 11.6156V18.9701C0.912952 19.1754 0.951675 19.379 1.02903 19.5691C1.10639 19.7592 1.22084 19.932 1.3657 20.0774C1.51055 20.2228 1.68292 20.3379 1.87273 20.416C2.06255 20.4941 2.26601 20.5336 2.47125 20.5322H3.86593V9.99358Z" fill="#FFAB04"/>
<path d="M12.7184 20.7324C11.6355 20.7324 10.5769 21.0535 9.67654 21.6551C8.77614 22.2567 8.07437 23.1118 7.65996 24.1122C7.24554 25.1127 7.13711 26.2136 7.34836 27.2756C7.55962 28.3377 8.08108 29.3133 8.84679 30.079C9.61251 30.8447 10.5881 31.3662 11.6502 31.5775C12.7122 31.7887 13.8131 31.6803 14.8136 31.2659C15.814 30.8514 16.6691 30.1497 17.2707 29.2493C17.8723 28.3489 18.1934 27.2903 18.1934 26.2074C18.1918 24.7559 17.6144 23.3642 16.588 22.3378C15.5616 21.3114 14.1699 20.7341 12.7184 20.7324V20.7324ZM12.7184 29.1924C12.128 29.1924 11.5509 29.0174 11.06 28.6894C10.5691 28.3614 10.1865 27.8952 9.96058 27.3498C9.73464 26.8044 9.67551 26.2042 9.79067 25.6252C9.90584 25.0461 10.1901 24.5142 10.6076 24.0968C11.025 23.6793 11.5569 23.395 12.1359 23.2798C12.7149 23.1646 13.3151 23.2238 13.8606 23.4497C14.406 23.6756 14.8722 24.0582 15.2002 24.5491C15.5282 25.0399 15.7032 25.6171 15.7032 26.2074C15.7025 26.9989 15.3878 27.7577 14.8282 28.3175C14.2686 28.8772 13.5099 29.192 12.7184 29.1929V29.1924Z" fill="#FFAB04"/>
<path d="M22.5197 0.298073H15.248V2.61013L22.5197 2.63427V0.298073Z" fill="#FFAB04"/>
<path d="M28.8425 0.298073H23.5732V2.63785L28.8425 2.65535V0.298073Z" fill="#FFAB04"/>
<path d="M47.0742 19.2675H49.1819V17.0391C49.1909 16.9743 49.1959 16.909 49.1968 16.8437H47.0742V19.2675Z" fill="#FFAB04"/>
<path d="M41.8052 24.277C41.4233 24.2769 41.0499 24.3902 40.7323 24.6024C40.4147 24.8145 40.1672 25.1161 40.021 25.469C39.8749 25.8219 39.8366 26.2102 39.9111 26.5848C39.9856 26.9594 40.1696 27.3035 40.4396 27.5735C40.7097 27.8436 41.0538 28.0275 41.4284 28.102C41.803 28.1766 42.1913 28.1383 42.5442 27.9921C42.897 27.846 43.1986 27.5984 43.4108 27.2808C43.623 26.9633 43.7362 26.5899 43.7362 26.2079C43.7357 25.696 43.532 25.2052 43.17 24.8432C42.808 24.4811 42.3172 24.2775 41.8052 24.277Z" fill="#FFAB04"/>
<path d="M14.1941 0.298073H8.9248V2.58906L14.1941 2.60666V0.298073Z" fill="#FFAB04"/>
<path d="M19.0117 24.4736C19.3162 25.5759 19.3256 26.7389 19.039 27.846H35.4842C35.1976 26.7389 35.2071 25.5759 35.5117 24.4736H19.0117Z" fill="#FFAB04"/>
<path d="M24.0996 6.832V12.3121H32.1736L29.6814 6.832H24.0996Z" fill="#FFAB04"/>
<path d="M48.3334 26.1662C48.3335 26.7187 48.2636 27.2689 48.1253 27.8038H50.2354V24.4315H48.0977C48.2488 24.9975 48.328 25.5804 48.3334 26.1662Z" fill="#FFAB04"/>
<path d="M15.3525 6.832H23.0457V12.3121H15.3525V6.832Z" fill="#FFAB04"/>
<path d="M49.182 20.3214H46.9513C46.8288 20.3232 46.7072 20.3004 46.5936 20.2544C46.48 20.2084 46.3768 20.1401 46.29 20.0536C46.2033 19.967 46.1347 19.864 46.0884 19.7505C46.0421 19.6371 46.019 19.5155 46.0205 19.393V16.7232C46.0189 16.6004 46.0419 16.4786 46.0881 16.3648C46.1343 16.251 46.2028 16.1476 46.2895 16.0607C46.3762 15.9737 46.4794 15.905 46.5931 15.8585C46.7067 15.8119 46.8285 15.7886 46.9513 15.7898H48.8828C48.6792 15.4142 48.3873 15.0938 48.0322 14.8562C47.6771 14.6186 47.2696 14.471 46.8447 14.4261L36.5252 13.3437C36.4335 13.3342 36.3459 13.3008 36.2712 13.2469C36.1964 13.193 36.1371 13.1205 36.0991 13.0365L32.5873 5.26386C32.3782 4.80357 32.0415 4.41289 31.6172 4.13814C31.1928 3.86339 30.6985 3.7161 30.193 3.71374L7.58766 3.63839C6.88531 3.63685 6.2108 3.91295 5.71111 4.40652C5.21142 4.90009 4.92704 5.57114 4.91992 6.27346V23.3776H6.81613C7.34772 22.2604 8.18592 21.3173 9.23302 20.6582C10.2801 19.9992 11.493 19.6513 12.7302 19.6552C13.9675 19.6591 15.1781 20.0146 16.221 20.6802C17.264 21.3459 18.0962 22.2943 18.6207 23.4148L35.9034 23.4092C36.4297 22.2905 37.2628 21.3442 38.3058 20.6803C39.3487 20.0165 40.5587 19.6623 41.795 19.659C43.0313 19.6556 44.2432 20.0033 45.2897 20.6616C46.3362 21.3199 47.1743 22.2617 47.7066 23.3776H49.182V20.3214ZM7.50188 13.3659C7.21091 13.3659 6.92226 13.1106 6.92226 12.8196V6.35513C6.93217 6.20492 6.9965 6.06347 7.10319 5.95727C7.20988 5.85106 7.35162 5.78738 7.50188 5.77814H30.0194C30.1223 5.78372 30.2217 5.81794 30.3062 5.87695C30.3908 5.93596 30.4572 6.0174 30.4979 6.11211L33.4756 12.6039C33.5123 12.6851 33.5283 12.7741 33.5222 12.863C33.5161 12.9518 33.4882 13.0378 33.4408 13.1133C33.3934 13.1887 33.3281 13.2512 33.2507 13.2953C33.1732 13.3394 33.0861 13.3636 32.9971 13.3658L7.50188 13.3659ZM22.8441 21.7968H22.2855C22.1458 21.7968 22.0118 21.7413 21.9129 21.6425C21.8141 21.5437 21.7586 21.4096 21.7586 21.2699C21.7586 21.1301 21.8141 20.9961 21.9129 20.8973C22.0118 20.7985 22.1458 20.743 22.2855 20.743H22.8441C22.9838 20.743 23.1179 20.7985 23.2167 20.8973C23.3155 20.9961 23.371 21.1301 23.371 21.2699C23.371 21.4096 23.3155 21.5437 23.2167 21.6425C23.1179 21.7413 22.9838 21.7968 22.8441 21.7968V21.7968ZM35.0719 21.7968H24.9523C24.8126 21.7968 24.6785 21.7413 24.5797 21.6425C24.4809 21.5437 24.4254 21.4096 24.4254 21.2699C24.4254 21.1301 24.4809 20.9961 24.5797 20.8973C24.6785 20.7985 24.8126 20.743 24.9523 20.743H35.0719C35.2117 20.743 35.3457 20.7985 35.4445 20.8973C35.5433 20.9961 35.5988 21.1301 35.5988 21.2699C35.5988 21.4096 35.5433 21.5437 35.4445 21.6425C35.3457 21.7413 35.2117 21.7968 35.0719 21.7968Z" fill="#FFAB04"/>
<path d="M41.8043 20.7324C40.7214 20.7324 39.6629 21.0535 38.7625 21.6551C37.8621 22.2567 37.1603 23.1118 36.7459 24.1122C36.3315 25.1127 36.223 26.2136 36.4343 27.2756C36.6456 28.3377 37.167 29.3133 37.9327 30.079C38.6984 30.8447 39.674 31.3662 40.7361 31.5775C41.7982 31.7887 42.8991 31.6803 43.8995 31.2659C44.9 30.8514 45.7551 30.1497 46.3567 29.2493C46.9583 28.3489 47.2794 27.2903 47.2793 26.2074C47.2777 24.7559 46.7003 23.3642 45.6739 22.3378C44.6475 21.3114 43.2559 20.7341 41.8043 20.7324ZM41.8043 29.1924C41.214 29.1924 40.6368 29.0174 40.1459 28.6894C39.6551 28.3614 39.2725 27.8952 39.0465 27.3498C38.8206 26.8044 38.7614 26.2042 38.8766 25.6252C38.9918 25.0461 39.2761 24.5142 39.6935 24.0968C40.111 23.6793 40.6428 23.395 41.2218 23.2798C41.8009 23.1646 42.4011 23.2238 42.9465 23.4497C43.4919 23.6756 43.9581 24.0582 44.2861 24.5491C44.6141 25.0399 44.7892 25.6171 44.7892 26.2074C44.7884 26.9989 44.4738 27.7577 43.9142 28.3175C43.3546 28.8772 42.5958 29.192 41.8043 29.1929V29.1924Z" fill="#FFAB04"/>
<path d="M7.97559 6.832H14.2987V12.3121H7.97559V6.832Z" fill="#FFAB04"/>
</svg>
