<svg width="25" height="24" viewBox="0 0 25 24" fill="none" xmlns="http://www.w3.org/2000/svg">
<path fill-rule="evenodd" clip-rule="evenodd" d="M0.682129 10.4355C0.682129 4.84922 5.16253 0.320618 10.6894 0.320618C13.3435 0.320618 15.8888 1.38629 17.7656 3.28321C19.6423 5.18012 20.6966 7.75289 20.6966 10.4355C20.6966 16.0218 16.2162 20.5504 10.6894 20.5504C5.16253 20.5504 0.682129 16.0218 0.682129 10.4355ZM20.531 18.5839L23.5115 20.9898H23.5632C24.1662 21.5992 24.1662 22.5874 23.5632 23.1968C22.9602 23.8063 21.9826 23.8063 21.3796 23.1968L18.9063 20.3622C18.6725 20.1266 18.541 19.8067 18.541 19.4731C18.541 19.1394 18.6725 18.8195 18.9063 18.5839C19.3572 18.1361 20.0801 18.1361 20.531 18.5839Z" fill="white"/>
</svg>
