<svg width="50" height="48" viewBox="0 0 50 48" fill="none" xmlns="http://www.w3.org/2000/svg">
<path d="M1.22007 42.3642C3.36155 42.3642 4.53137 43.166 5.38548 43.7514C6.01487 44.1829 6.30217 44.3798 7.10131 44.3798C7.90053 44.3798 8.18784 44.1829 8.81723 43.7514C9.67143 43.166 10.8412 42.3642 12.9827 42.3642C15.0618 42.3642 16.2249 43.1199 17.0726 43.6996C18.7998 43.2647 20.5932 42.7329 22.4183 42.1043C33.3473 38.3397 41.2632 32.5473 40.0987 29.1667C39.2822 26.7963 34.2181 26.2413 27.497 27.4187L25.4932 29.0693L27.0947 34.6327C27.6241 36.4723 26.5621 38.3929 24.7225 38.9224C22.8827 39.452 20.9624 38.3899 20.4328 36.5503L18.4802 29.767C17.1935 30.2041 15.9451 30.6685 14.6819 31.1844L10.717 39.8277C9.92013 41.5647 7.86375 42.3323 6.12126 41.5329C4.38136 40.7348 3.61785 38.6772 4.41602 36.9373L4.52617 36.6973C1.69666 38.829 0.145186 40.9058 0.444909 42.5077C0.685708 42.4152 0.946822 42.3642 1.22007 42.3642V42.3642Z" fill="#FFAB04"/>
<path d="M37.5499 12.2341L30.6589 8.62865C30.4326 8.51032 30.1845 8.43946 29.9298 8.42049C26.7326 8.21233 24.8131 8.11066 23.6658 8.06194C22.6241 8.01775 21.5828 8.13983 20.5792 8.42222C20.5621 8.42704 20.5447 8.43195 20.5273 8.43676C18.4847 9.01166 16.6817 10.2295 15.3857 11.9097C14.6088 12.9168 13.5736 14.2558 12.1805 16.043L6.31968 18.4684C5.36447 18.8637 4.9105 19.9585 5.30584 20.9138C5.7004 21.8675 6.79425 22.3237 7.75128 21.9278L14.0718 19.3122C14.373 19.1875 14.6364 18.9864 14.836 18.7286L17.665 15.0749C18.2943 17.1713 18.7436 18.6682 19.4343 20.9693L11.7609 24.9476C11.312 25.1803 10.9537 25.5563 10.7429 26.016L5.50389 37.4364C4.98137 38.5754 5.48116 39.9222 6.62017 40.4448C6.92682 40.5854 7.24821 40.6519 7.56488 40.6519C8.42448 40.6519 9.24681 40.1609 9.62867 39.3285L14.5423 28.6172L21.232 25.1489L20.0899 26.0897C19.3919 26.6648 19.102 27.5995 19.3522 28.4686L21.569 36.1701C21.9209 37.3925 23.2177 38.1344 24.4332 37.7594C25.6115 37.3958 26.2866 36.154 25.9439 34.9639L24.125 28.6451L27.4689 25.8947C29.0126 24.6251 29.6657 22.5669 29.1363 20.6395C28.1747 17.1391 26.9223 12.5903 26.7285 11.9368L29.2663 12.1253L35.8143 15.5513C36.7332 16.0319 37.863 15.6736 38.3407 14.7604C38.82 13.8445 38.466 12.7134 37.5499 12.2341V12.2341Z" fill="#FFAB04"/>
<path d="M18.979 7.81604C20.9631 7.22044 22.0886 5.12931 21.4931 3.14525C21.0055 1.52089 19.5152 0.471809 17.9021 0.471809C15.3977 0.471809 13.5842 2.89001 14.3082 5.30194C14.902 7.28014 16.9896 8.41327 18.979 7.81604Z" fill="#FFAB04"/>
<path d="M48.2719 43.5677C46.5032 43.5677 45.5514 44.22 44.7867 44.7441C44.1026 45.213 43.5622 45.5833 42.3899 45.5833C41.2177 45.5833 40.6775 45.213 39.9933 44.7441C39.2286 44.22 38.2768 43.5677 36.508 43.5677C34.7393 43.5677 33.7876 44.22 33.0229 44.7441C32.339 45.213 31.7985 45.5833 30.6264 45.5833C29.4543 45.5833 28.914 45.213 28.23 44.7442C27.4653 44.22 26.5136 43.5677 24.745 43.5677C22.9764 43.5677 22.0247 44.22 21.2601 44.7442C20.5761 45.213 20.0358 45.5833 18.8637 45.5833C17.6916 45.5833 17.1514 45.213 16.4673 44.7442C15.7026 44.22 14.7509 43.5677 12.9823 43.5677C11.2137 43.5677 10.262 44.22 9.49732 44.7442C8.81334 45.213 8.27301 45.5833 7.10088 45.5833C5.92885 45.5833 5.38862 45.213 4.70454 44.7442C3.93988 44.22 2.98824 43.5677 1.21965 43.5677C0.687983 43.5677 0.256836 43.9988 0.256836 44.5305C0.256836 45.0623 0.687983 45.4934 1.21965 45.4934C2.39168 45.4934 2.93191 45.8637 3.61599 46.3324C4.38065 46.8566 5.3323 47.5089 7.10088 47.5089C8.86947 47.5089 9.82121 46.8566 10.5859 46.3324C11.2699 45.8637 11.8102 45.4934 12.9823 45.4934C14.1544 45.4934 14.6947 45.8637 15.3788 46.3324C16.1434 46.8566 17.0952 47.5089 18.8637 47.5089C20.6323 47.5089 21.5841 46.8566 22.3486 46.3324C23.0326 45.8637 23.573 45.4934 24.745 45.4934C25.9171 45.4934 26.4573 45.8637 27.1414 46.3324C27.9061 46.8566 28.8578 47.5089 30.6264 47.5089C32.3951 47.5089 33.3468 46.8566 34.1115 46.3325C34.7955 45.8637 35.3359 45.4934 36.508 45.4934C37.6803 45.4934 38.2206 45.8637 38.9048 46.3325C39.6695 46.8567 40.6213 47.5089 42.3899 47.5089C44.1587 47.5089 45.1105 46.8566 45.8752 46.3325C46.5593 45.8637 47.0996 45.4934 48.2719 45.4934C48.8035 45.4934 49.2347 45.0623 49.2347 44.5305C49.2347 43.9988 48.8036 43.5677 48.2719 43.5677V43.5677Z" fill="#FFAB04"/>
<path d="M46.0025 21.8818C47.5666 20.7662 46.828 17.7584 45.544 18.2497C43.8305 18.9053 42.6085 22.4684 41.9866 24.7582C41.8962 25.0911 42.3395 25.2989 42.5352 25.0149C43.7547 23.2468 44.7652 22.7644 46.0025 21.8818V21.8818Z" fill="#FFAB04"/>
<path d="M46.1294 28.7728C47.2696 29.011 48.3062 27.4451 47.5593 27.075C46.6223 26.6106 44.7188 27.3965 43.4339 28.0444C43.2027 28.161 43.307 28.5114 43.5645 28.4843C44.6848 28.3668 45.2893 28.5973 46.1294 28.7728Z" fill="#FFAB04"/>
</svg>
