<svg width="48" height="48" viewBox="0 0 48 48" fill="none" xmlns="http://www.w3.org/2000/svg">
<path d="M17.1911 25.391L20.6044 23.5947L17.1911 21.7983L19.2488 18.5359L15.3947 18.6867L15.5456 14.8326L12.2832 16.8903L10.4868 13.4771L8.69034 16.8903L5.42795 14.8326L5.5788 18.6867L1.72466 18.5359L3.7824 21.7983L0.369141 23.5947L3.7824 25.3911L1.72466 28.6535L5.5788 28.5026L5.42795 32.3567L8.69034 30.2989L10.4868 33.7123L12.2832 30.299L15.5456 32.3567L15.3947 28.5025L19.2488 28.6534L17.1911 25.391ZM10.4868 28.6535C7.69284 28.6535 5.42795 26.3885 5.42795 23.5947C5.42795 20.8009 7.69284 18.5359 10.4868 18.5359C13.2807 18.5359 15.5456 20.8009 15.5456 23.5947C15.5456 26.3885 13.2807 28.6535 10.4868 28.6535Z" fill="#FFAB04"/>
<path d="M42.7438 43.621C41.812 44.2762 41.1387 44.7497 39.6128 44.7497C38.087 44.7497 37.4136 44.2762 36.4817 43.621C35.4484 42.8945 34.1624 41.9904 31.7637 41.9904C29.365 41.9904 28.079 42.8946 27.0457 43.621C26.1139 44.2762 25.4407 44.7497 23.915 44.7497C22.3893 44.7497 21.716 44.2763 20.7842 43.621C19.7509 42.8946 18.4649 41.9904 16.0664 41.9904C13.6676 41.9904 12.3818 42.8946 11.3485 43.621C10.4167 44.2762 9.74341 44.7497 8.21772 44.7497C6.69203 44.7497 6.01887 44.2763 5.08704 43.621C4.05376 42.8945 2.76788 41.9903 0.369141 41.9903V44.7496C1.89474 44.7496 2.56808 45.223 3.49991 45.8783C4.53319 46.6047 5.81916 47.5089 8.21772 47.5089C10.6165 47.5089 11.9023 46.6047 12.9356 45.8783C13.8674 45.223 14.5407 44.7496 16.0664 44.7496C17.5921 44.7496 18.2652 45.223 19.1971 45.8783C20.2303 46.6047 21.5163 47.5089 23.9149 47.5089C26.3134 47.5089 27.5995 46.6048 28.6328 45.8783C29.5646 45.223 30.2378 44.7496 31.7636 44.7496C33.2894 44.7496 33.9628 45.223 34.8947 45.8783C35.928 46.6048 37.214 47.5089 39.6128 47.5089C42.0115 47.5089 43.2975 46.6048 44.3308 45.8783C45.2628 45.2231 45.936 44.7496 47.4619 44.7496V41.9903C45.0631 41.9903 43.7772 42.8944 42.7438 43.621Z" fill="#FFAB04"/>
<path d="M46.0364 10.5197C44.5191 7.26586 41.9595 4.70863 38.7476 3.20299L39.3982 1.41578L36.8051 0.471817L36.1543 2.25995C28.6569 0.27561 20.7237 4.31631 18.0207 11.7428L17.4637 13.2732L19.0648 13.5711C21.6523 14.0524 24.126 14.9528 26.4173 16.2473L26.7394 16.4292L27.1093 16.4256C27.1559 16.4252 27.2024 16.425 27.2489 16.425C28.4668 16.425 29.6702 16.5807 30.8327 16.8809L24.4033 34.5451C24.2407 34.5431 24.0783 34.5402 23.9154 34.5402C19.6523 34.5402 15.4656 35.2383 11.4714 36.615C8.9551 37.4824 6.54662 38.6093 4.27197 39.9776C5.32292 40.4148 6.09726 40.9585 6.67374 41.3638C7.48056 41.9312 7.56491 41.9904 8.21756 41.9904C8.87029 41.9904 8.95455 41.9311 9.76109 41.364C10.896 40.566 12.7948 39.2311 16.0662 39.2311C19.3376 39.2311 21.2364 40.5662 22.3709 41.3638C23.1777 41.9312 23.2621 41.9904 23.9147 41.9904C24.5674 41.9904 24.6517 41.9311 25.4582 41.364C26.5932 40.5661 28.492 39.2311 31.7635 39.2311C35.0353 39.2311 36.9341 40.5663 38.0687 41.3639C38.8754 41.9311 38.9598 41.9904 39.6126 41.9904C40.2654 41.9904 40.3498 41.9311 41.1562 41.364C41.7329 40.9585 42.5075 40.4147 43.5586 39.9774C41.284 38.6091 38.8756 37.4822 36.3592 36.6148C33.424 35.6031 30.3846 34.9594 27.2875 34.6885L33.4256 17.8245C34.5505 18.3615 35.609 19.0466 36.5705 19.8694L36.8516 20.11L37.2153 20.1776C39.8028 20.6589 42.2765 21.5593 44.5679 22.8537L45.986 23.6548L46.5431 22.1243C47.9295 18.3149 47.7496 14.1936 46.0364 10.5197Z" fill="#FFAB04"/>
</svg>
